<svg class="w-full py-2 px-4" viewBox="0 0 338 65" preserveAspectRatio="xMidYMid meet" fill="none"
    xmlns="http://www.w3.org/2000/svg">
    <path
        d="M41.1632 22.5977C40.5603 24.4239 38.8475 25.7406 36.8279 25.7406C34.3034 25.7406 32.2582 23.6853 32.2582 21.1482C32.2582 19.5297 33.0933 18.106 34.3545 17.2881C32.9889 16.815 31.5254 16.5559 30 16.5559C22.614 16.5559 16.6255 22.5741 16.6255 29.9968C16.6255 37.4194 22.614 43.4376 30 43.4376C37.386 43.4376 43.3745 37.4194 43.3745 29.9968C43.3745 27.2606 42.5586 24.7193 41.1632 22.5955V22.5977Z"
        fill="#0059FF"></path>
    <path
        d="M59.834 57.6002L54.4505 46.9961C57.7633 42.164 59.704 36.3106 59.704 29.9991C59.704 13.4368 46.2123 -0.0640002 29.7317 0.000228223C13.3342 0.0644566 0.0534174 13.4175 0.000157889 29.8985C-0.0531016 46.4587 13.3747 59.998 29.851 59.998C36.1442 59.998 41.9814 58.0391 46.7961 54.6971L57.9294 59.6234C59.1949 60.1843 60.4603 58.8377 59.8319 57.6002H59.834ZM29.851 50.124C18.7901 50.124 9.82547 41.1128 9.82547 29.9991C9.82547 18.8855 18.7922 9.87426 29.851 9.87426C40.9098 9.87426 49.8766 18.8855 49.8766 29.9991C49.8766 41.1128 40.9098 50.124 29.851 50.124Z"
        fill="#0059FF"></path>
    <path
        d="M298.123 47.6037V20.883H305.862V24.2296H306.28C307.675 21.5104 310.011 20.1509 313.287 20.1509C314.891 20.1509 316.303 20.5518 317.523 21.3536C318.743 22.1554 319.684 23.2883 320.347 24.7525H320.765C322.369 21.6847 324.913 20.1509 328.4 20.1509C331.154 20.1509 333.297 21.005 334.831 22.7131C336.4 24.4213 337.184 26.757 337.184 29.7201V47.6037H329.445V31.3935C329.445 30.0339 329.097 28.9881 328.4 28.256C327.702 27.4891 326.726 27.1056 325.471 27.1056C324.216 27.1056 323.24 27.4891 322.543 28.256C321.846 28.9881 321.497 30.0339 321.497 31.3935V47.6037H313.758V31.3935C313.758 30.0339 313.409 28.9881 312.712 28.256C312.05 27.4891 311.091 27.1056 309.836 27.1056C308.581 27.1056 307.605 27.4891 306.908 28.256C306.211 28.9881 305.862 30.0339 305.862 31.3935V47.6037H298.123Z"
        fill="black"></path>
    <path
        d="M276.383 48.3357C273.943 48.3357 271.764 47.7431 269.847 46.5579C267.929 45.3377 266.43 43.6644 265.35 41.5379C264.269 39.3765 263.729 36.9363 263.729 34.2172C263.729 31.498 264.269 29.0752 265.35 26.9487C266.43 24.8222 267.929 23.1663 269.847 21.9811C271.764 20.7609 273.943 20.1509 276.383 20.1509C278.335 20.1509 280.061 20.5518 281.56 21.3536C283.059 22.1554 284.227 23.3232 285.063 24.8571H285.482V20.883H293.221V47.6037H285.482V43.6296H285.063C284.227 45.1286 283.059 46.2964 281.56 47.1331C280.061 47.9348 278.335 48.3357 276.383 48.3357ZM278.684 41.381C280.741 41.381 282.379 40.7361 283.599 39.4463C284.854 38.1564 285.482 36.4134 285.482 34.2172C285.482 32.0558 284.854 30.3302 283.599 29.0404C282.379 27.7505 280.741 27.1056 278.684 27.1056C276.627 27.1056 274.971 27.7505 273.716 29.0404C272.461 30.3302 271.834 32.0558 271.834 34.2172C271.834 36.4134 272.461 38.1564 273.716 39.4463C274.971 40.7361 276.627 41.381 278.684 41.381Z"
        fill="black"></path>
    <path
        d="M243.884 47.6038H235.465L243.361 34.0604L235.884 20.8831H244.669L248.956 29.4065H249.427L253.819 20.8831H262.238L254.708 34.0604L262.657 47.6038H253.872L249.218 38.6097H248.8L243.884 47.6038Z"
        fill="black"></path>
    <path
        d="M214.477 32.3347V40.3876H233.511V47.6037H206.319V11H233.197V18.2162H214.477V25.5369H231.942V32.3347H214.477Z"
        fill="black"></path>
    <path
        d="M201.902 27.5764H195.627V38.819C195.627 39.6208 195.766 40.1785 196.045 40.4923C196.359 40.7712 196.916 40.9106 197.718 40.9106H201.902V47.6039H195.783C192.925 47.6039 190.886 47.0112 189.665 45.826C188.48 44.6058 187.888 42.5665 187.888 39.7079V27.5764H182.972V20.8831H187.888V12.8303H195.627V20.8831H201.902V27.5764Z"
        fill="black"></path>
    <path
        d="M168.737 48.3357C166.157 48.3357 163.909 47.9174 161.992 47.0808C160.074 46.2092 158.593 45.024 157.547 43.525C156.536 42.026 155.996 40.3352 155.926 38.4527H163.665C163.804 39.4288 164.31 40.2132 165.181 40.8058C166.088 41.3636 167.36 41.6425 168.999 41.6425C171.718 41.6425 173.077 40.893 173.077 39.394C173.077 38.627 172.711 38.0693 171.979 37.7207C171.247 37.3372 169.853 37.006 167.796 36.7271C163.857 36.2391 161.05 35.385 159.377 34.1649C157.739 32.9099 156.919 31.0623 156.919 28.622C156.919 26.0075 158 23.9507 160.161 22.4517C162.358 20.9178 165.199 20.1509 168.685 20.1509C170.986 20.1509 173.042 20.5692 174.855 21.4059C176.703 22.2077 178.167 23.3232 179.248 24.7525C180.328 26.1818 180.921 27.8028 181.025 29.6156H173.286C173.147 28.744 172.659 28.0643 171.822 27.5762C171.02 27.0533 169.87 26.7918 168.371 26.7918C167.221 26.7918 166.314 26.9661 165.652 27.3148C165.024 27.6285 164.711 28.1165 164.711 28.7789C164.711 29.5458 165.129 30.121 165.966 30.5045C166.802 30.888 168.406 31.2017 170.776 31.4457C174.367 31.8292 176.982 32.6484 178.62 33.9034C180.259 35.1584 181.078 37.006 181.078 39.4463C181.078 42.3048 179.945 44.5011 177.679 46.0349C175.413 47.5688 172.432 48.3357 168.737 48.3357Z"
        fill="black"></path>
    <path
        d="M136.4 48.3359C133.611 48.3359 131.397 47.4295 129.759 45.6167C128.155 43.804 127.354 41.3114 127.354 38.1391V20.8831H135.093V36.0997C135.093 37.8079 135.493 39.1152 136.295 40.0216C137.132 40.928 138.3 41.3811 139.799 41.3811C141.298 41.3811 142.466 40.928 143.302 40.0216C144.139 39.0803 144.557 37.7731 144.557 36.0997V20.8831H152.296V47.6038H144.557V43.7865H144.087C143.32 45.3204 142.274 46.4708 140.949 47.2377C139.624 47.9698 138.108 48.3359 136.4 48.3359Z"
        fill="black"></path>
    <path
        d="M109.181 47.6038V20.883H116.92V25.5892H117.338C117.826 23.7765 118.558 22.5041 119.534 21.772C120.545 21.0051 122.062 20.6216 124.084 20.6216H125.025V28.3084H121.417C118.419 28.3084 116.92 30.0514 116.92 33.5375V47.6038H109.181Z"
        fill="black"></path>
    <path d="M95.8183 47.6037H87.6609V18.373H76V11H107.479V18.373H95.8183V47.6037Z" fill="black"></path>
</svg>